<svg width="18" height="18" viewBox="0 0 18 18" fill="none" xmlns="http://www.w3.org/2000/svg">
<path d="M17.0574 2.90421C16.8918 2.45541 16.6275 2.04919 16.2842 1.71576C15.9508 1.37244 15.5448 1.10822 15.0958 0.942596C14.7316 0.801147 14.1844 0.632782 13.1767 0.586914C12.0866 0.537201 11.7598 0.526489 9 0.526489C6.23996 0.526489 5.91312 0.536926 4.82327 0.586639C3.81555 0.632782 3.26816 0.801147 2.90424 0.942596C2.45517 1.10822 2.04895 1.37244 1.71579 1.71576C1.37247 2.04919 1.10825 2.45514 0.942352 2.90421C0.800903 3.2684 0.632538 3.8158 0.58667 4.82352C0.536957 5.91336 0.526245 6.2402 0.526245 9.00024C0.526245 11.76 0.536957 12.0869 0.58667 13.177C0.632538 14.1847 0.800903 14.7318 0.942352 15.096C1.10825 15.5451 1.37219 15.951 1.71552 16.2845C2.04895 16.6278 2.4549 16.892 2.90396 17.0576C3.26816 17.1993 3.81555 17.3677 4.82327 17.4136C5.91312 17.4633 6.23969 17.4737 8.99973 17.4737C11.76 17.4737 12.0869 17.4633 13.1765 17.4136C14.1842 17.3677 14.7316 17.1993 15.0958 17.0576C15.9972 16.7099 16.7097 15.9974 17.0574 15.096C17.1988 14.7318 17.3672 14.1847 17.4133 13.177C17.463 12.0869 17.4735 11.76 17.4735 9.00024C17.4735 6.2402 17.463 5.91336 17.4133 4.82352C17.3675 3.8158 17.1991 3.2684 17.0574 2.90421ZM9 14.3075C6.06857 14.3075 3.69223 11.9314 3.69223 8.99997C3.69223 6.06854 6.06857 3.69247 9 3.69247C11.9312 3.69247 14.3075 6.06854 14.3075 8.99997C14.3075 11.9314 11.9312 14.3075 9 14.3075ZM14.5173 4.72299C13.8323 4.72299 13.277 4.16763 13.277 3.48264C13.277 2.79764 13.8323 2.24228 14.5173 2.24228C15.2023 2.24228 15.7577 2.79764 15.7577 3.48264C15.7574 4.16763 15.2023 4.72299 14.5173 4.72299Z" fill="#C6C4C2"/>
</svg>
